<?xml version="1.0" encoding="utf-8"?>
<!-- Generator: Adobe Illustrator 19.0.0, SVG Export Plug-In . SVG Version: 6.00 Build 0)  -->
<svg version="1.1" id="Layer_1" xmlns="http://www.w3.org/2000/svg" xmlns:xlink="http://www.w3.org/1999/xlink" x="0px" y="0px"
	 viewBox="15.9 364.8 820 179.1" style="enable-background:new 15.9 364.8 820 179.1;" xml:space="preserve">
<style type="text/css">
	.st0{fill:#F99C25;}
	.st1{fill:#21205F;}
</style>
<g>
	<path class="st0" d="M338.2,412.6v20.6c-8.6-11.5-23.2-19.8-40.1-19.8c-39.1,0-60.4,29.6-60.4,64.8c0,36.7,23,66,61.1,66
		c18.3,0,30.3-8.1,39.4-21v21h36.4V412.6H338.2z M306.4,514.7c-20.1,0-32.3-16.1-32.3-36.2c0-19.3,11.3-35.5,31.3-35.5
		c19.8,0,33.8,14.2,33.8,37.4C339.2,503.2,324.3,514.7,306.4,514.7z M84.9,413.4c-36.4,0-69,26.2-69,65.3c0,39.4,32.5,65.6,69,65.6
		c36.7,0,69-26.4,69-65.6C153.9,439.9,121.6,413.4,84.9,413.4z M84.9,514.7c-18.8,0-35.2-15.2-35.2-36c0-20.6,16.4-35.7,35.2-35.7
		c19,0,35.2,15.4,35.2,35.7C120.1,499.3,103.9,514.7,84.9,514.7z M177.8,544.3h36.4V364.8h-36.4L177.8,544.3L177.8,544.3z"/>
	<path class="st1" d="M499.2,433.2c-8.6-11.5-23.2-19.8-40.1-19.8c-39.1,0-60.4,29.6-60.4,64.8c0,36.7,23,66,61.1,66
		c18.3,0,30.3-8.1,39.4-21v21h36.4V364.8h-36.4V433.2z M467.4,514.7c-20.1,0-32.3-16.1-32.3-36.2c0-19.3,11.3-35.5,31.3-35.5
		c19.8,0,33.8,14.2,33.8,37.4C500.1,503.2,485.2,514.7,467.4,514.7z M627.9,413.4c-36.4,0-69,26.2-69,65.3c0,39.4,32.5,65.6,69,65.6
		c36.7,0,69-26.4,69-65.6C696.9,439.9,664.6,413.4,627.9,413.4z M663.7,490.4h-24.2v24.2h-23.1v-24.2h-24.2v-23.1h24.2v-24.2h23.1
		v24.2h24.2V490.4z M786.3,514.2c-21,0-37.9-15.9-37.9-35.6c0-19.6,17-35.6,37.9-35.6c11.7,0,25.1,5,34.7,12.8l14.9-23.9
		c-21.5-15.9-38.4-18.6-51.4-18.6c-43,0-70.2,28.1-70.2,65.3s27.2,65.3,70.2,65.3c13,0,29.8-2.7,51.4-18.6l-15-24
		C811.4,509.2,798,514.2,786.3,514.2z"/>
</g>
</svg>
